<mxfile host="app.diagrams.net" modified="2024-05-03T05:35:06.316Z" agent="Mozilla/5.0 (X11; Linux x86_64) AppleWebKit/537.36 (KHTML, like Gecko) Chrome/126.0.0.0 Safari/537.36" etag="1iaWdjbKMvMaOeTWOxKJ" version="24.3.1" type="github">
  <diagram name="Page-1" id="QrXU7Ro9VfwUBPe0FeiA">
    <mxGraphModel dx="2049" dy="2271" grid="1" gridSize="10" guides="1" tooltips="1" connect="1" arrows="1" fold="1" page="1" pageScale="1" pageWidth="850" pageHeight="1100" math="0" shadow="0">
      <root>
        <mxCell id="0" />
        <mxCell id="1" parent="0" />
        <mxCell id="C_WioBEn_e1DX77lr8F8-119" value="" style="whiteSpace=wrap;html=1;shadow=0;dashed=0;sketch=0;pointerEvents=1;align=center;verticalAlign=top;fontFamily=Helvetica;fontSize=12;fillColor=#fff2cc;strokeColor=#d6b656;" parent="1" vertex="1">
          <mxGeometry x="110" y="220" width="1340" height="330" as="geometry" />
        </mxCell>
        <mxCell id="C_WioBEn_e1DX77lr8F8-40" value="" style="rounded=0;whiteSpace=wrap;html=1;fillColor=#e1d5e7;strokeColor=#9673a6;" parent="1" vertex="1">
          <mxGeometry x="510" y="650" width="600" height="120" as="geometry" />
        </mxCell>
        <mxCell id="C_WioBEn_e1DX77lr8F8-5" value="1. RG-CS86-24XMG4XS4VS-UPD" style="rounded=0;whiteSpace=wrap;html=1;fillColor=#CCFFFF;movable=1;resizable=1;rotatable=1;deletable=1;editable=1;locked=0;connectable=1;" parent="1" vertex="1">
          <mxGeometry x="150" y="320" width="579.9999999999999" height="120" as="geometry" />
        </mxCell>
        <mxCell id="C_WioBEn_e1DX77lr8F8-34" value="Fortigate" style="sketch=0;points=[[0.5,0,0],[1,0.5,0],[0.5,1,0],[0,0.5,0],[0.145,0.145,0],[0.8555,0.145,0],[0.855,0.8555,0],[0.145,0.855,0]];verticalLabelPosition=bottom;html=1;verticalAlign=top;aspect=fixed;align=center;pointerEvents=1;shape=mxgraph.cisco19.rect;prIcon=router_with_firewall;fillColor=#FAFAFA;strokeColor=#005073;" parent="1" vertex="1">
          <mxGeometry x="761" y="680" width="50" height="50" as="geometry" />
        </mxCell>
        <mxCell id="C_WioBEn_e1DX77lr8F8-37" value="" style="sketch=0;pointerEvents=1;shadow=0;dashed=0;html=1;strokeColor=none;fillColor=#434445;aspect=fixed;labelPosition=center;verticalLabelPosition=bottom;verticalAlign=top;align=center;outlineConnect=0;shape=mxgraph.vvd.ethernet_port;" parent="1" vertex="1">
          <mxGeometry x="528.4200000000001" y="658" width="15" height="15" as="geometry" />
        </mxCell>
        <mxCell id="C_WioBEn_e1DX77lr8F8-47" value="" style="sketch=0;pointerEvents=1;shadow=0;dashed=0;html=1;strokeColor=none;fillColor=#434445;aspect=fixed;labelPosition=center;verticalLabelPosition=bottom;verticalAlign=top;align=center;outlineConnect=0;shape=mxgraph.vvd.ethernet_port;" parent="1" vertex="1">
          <mxGeometry x="554" y="658" width="15" height="15" as="geometry" />
        </mxCell>
        <mxCell id="C_WioBEn_e1DX77lr8F8-51" value="" style="sketch=0;pointerEvents=1;shadow=0;dashed=0;html=1;strokeColor=none;fillColor=#434445;aspect=fixed;labelPosition=center;verticalLabelPosition=bottom;verticalAlign=top;align=center;outlineConnect=0;shape=mxgraph.vvd.ethernet_port;" parent="1" vertex="1">
          <mxGeometry x="1054" y="658" width="15" height="15" as="geometry" />
        </mxCell>
        <mxCell id="C_WioBEn_e1DX77lr8F8-52" value="" style="sketch=0;pointerEvents=1;shadow=0;dashed=0;html=1;strokeColor=none;fillColor=#434445;aspect=fixed;labelPosition=center;verticalLabelPosition=bottom;verticalAlign=top;align=center;outlineConnect=0;shape=mxgraph.vvd.ethernet_port;" parent="1" vertex="1">
          <mxGeometry x="1079" y="658" width="15" height="15" as="geometry" />
        </mxCell>
        <mxCell id="C_WioBEn_e1DX77lr8F8-53" value="" style="sketch=0;points=[[0.015,0.015,0],[0.985,0.015,0],[0.985,0.985,0],[0.015,0.985,0],[0.25,0,0],[0.5,0,0],[0.75,0,0],[1,0.25,0],[1,0.5,0],[1,0.75,0],[0.75,1,0],[0.5,1,0],[0.25,1,0],[0,0.75,0],[0,0.5,0],[0,0.25,0]];verticalLabelPosition=bottom;html=1;verticalAlign=top;aspect=fixed;align=center;pointerEvents=1;shape=mxgraph.cisco19.rect;prIcon=l3_switch;fillColor=#FAFAFA;strokeColor=#005073;shadow=0;dashed=0;fontFamily=Helvetica;fontSize=12;fontColor=default;" parent="1" vertex="1">
          <mxGeometry x="160" y="330" width="50" height="50" as="geometry" />
        </mxCell>
        <mxCell id="C_WioBEn_e1DX77lr8F8-82" style="edgeStyle=orthogonalEdgeStyle;rounded=0;orthogonalLoop=1;jettySize=auto;html=1;fontFamily=Helvetica;fontSize=12;fontColor=default;endArrow=none;endFill=0;" parent="1" source="C_WioBEn_e1DX77lr8F8-54" target="C_WioBEn_e1DX77lr8F8-37" edge="1">
          <mxGeometry relative="1" as="geometry">
            <Array as="points">
              <mxPoint x="178" y="610" />
              <mxPoint x="536" y="610" />
            </Array>
          </mxGeometry>
        </mxCell>
        <mxCell id="C_WioBEn_e1DX77lr8F8-54" value="mgmt0" style="sketch=0;pointerEvents=1;shadow=0;dashed=0;html=1;strokeColor=none;fillColor=#434445;aspect=fixed;labelPosition=center;verticalLabelPosition=bottom;verticalAlign=top;align=center;outlineConnect=0;shape=mxgraph.vvd.ethernet_port;" parent="1" vertex="1">
          <mxGeometry x="170.00000000000003" y="400" width="15" height="15" as="geometry" />
        </mxCell>
        <mxCell id="C_WioBEn_e1DX77lr8F8-83" style="edgeStyle=orthogonalEdgeStyle;rounded=0;orthogonalLoop=1;jettySize=auto;html=1;fontFamily=Helvetica;fontSize=12;fontColor=default;endArrow=none;endFill=0;" parent="1" source="C_WioBEn_e1DX77lr8F8-56" target="C_WioBEn_e1DX77lr8F8-47" edge="1">
          <mxGeometry relative="1" as="geometry">
            <Array as="points">
              <mxPoint x="248" y="590" />
              <mxPoint x="562" y="590" />
            </Array>
          </mxGeometry>
        </mxCell>
        <mxCell id="C_WioBEn_e1DX77lr8F8-56" value="te0/1&lt;div&gt;&lt;br&gt;&lt;/div&gt;" style="sketch=0;pointerEvents=1;shadow=0;dashed=0;html=1;strokeColor=none;fillColor=#434445;aspect=fixed;labelPosition=center;verticalLabelPosition=bottom;verticalAlign=top;align=center;outlineConnect=0;shape=mxgraph.vvd.ethernet_port;" parent="1" vertex="1">
          <mxGeometry x="240.00000000000003" y="400" width="15" height="15" as="geometry" />
        </mxCell>
        <mxCell id="C_WioBEn_e1DX77lr8F8-64" value="te0/23" style="sketch=0;pointerEvents=1;shadow=0;dashed=0;html=1;strokeColor=none;fillColor=#434445;aspect=fixed;labelPosition=center;verticalLabelPosition=bottom;verticalAlign=top;align=center;outlineConnect=0;shape=mxgraph.vvd.ethernet_port;" parent="1" vertex="1">
          <mxGeometry x="650" y="399" width="15" height="15" as="geometry" />
        </mxCell>
        <mxCell id="C_WioBEn_e1DX77lr8F8-65" value="te0/24" style="sketch=0;pointerEvents=1;shadow=0;dashed=0;html=1;strokeColor=none;fillColor=#434445;aspect=fixed;labelPosition=center;verticalLabelPosition=bottom;verticalAlign=top;align=center;outlineConnect=0;shape=mxgraph.vvd.ethernet_port;" parent="1" vertex="1">
          <mxGeometry x="690" y="399" width="15" height="15" as="geometry" />
        </mxCell>
        <mxCell id="C_WioBEn_e1DX77lr8F8-67" value="2. RG-CS86-24XMG4XS4VS-UPD&lt;div&gt;&lt;br&gt;&lt;/div&gt;" style="rounded=0;whiteSpace=wrap;html=1;fillColor=#CCFFFF;movable=1;resizable=1;rotatable=1;deletable=1;editable=1;locked=0;connectable=1;" parent="1" vertex="1">
          <mxGeometry x="800" y="320" width="579.9999999999999" height="120" as="geometry" />
        </mxCell>
        <mxCell id="C_WioBEn_e1DX77lr8F8-68" value="" style="sketch=0;points=[[0.015,0.015,0],[0.985,0.015,0],[0.985,0.985,0],[0.015,0.985,0],[0.25,0,0],[0.5,0,0],[0.75,0,0],[1,0.25,0],[1,0.5,0],[1,0.75,0],[0.75,1,0],[0.5,1,0],[0.25,1,0],[0,0.75,0],[0,0.5,0],[0,0.25,0]];verticalLabelPosition=bottom;html=1;verticalAlign=top;aspect=fixed;align=center;pointerEvents=1;shape=mxgraph.cisco19.rect;prIcon=l3_switch;fillColor=#FAFAFA;strokeColor=#005073;shadow=0;dashed=0;fontFamily=Helvetica;fontSize=12;fontColor=default;" parent="1" vertex="1">
          <mxGeometry x="1315" y="330" width="50" height="50" as="geometry" />
        </mxCell>
        <mxCell id="C_WioBEn_e1DX77lr8F8-69" value="te0/24" style="sketch=0;pointerEvents=1;shadow=0;dashed=0;html=1;strokeColor=none;fillColor=#434445;aspect=fixed;labelPosition=center;verticalLabelPosition=bottom;verticalAlign=top;align=center;outlineConnect=0;shape=mxgraph.vvd.ethernet_port;" parent="1" vertex="1">
          <mxGeometry x="820" y="400" width="15" height="15" as="geometry" />
        </mxCell>
        <mxCell id="C_WioBEn_e1DX77lr8F8-70" value="te0/23" style="sketch=0;pointerEvents=1;shadow=0;dashed=0;html=1;strokeColor=none;fillColor=#434445;aspect=fixed;labelPosition=center;verticalLabelPosition=bottom;verticalAlign=top;align=center;outlineConnect=0;shape=mxgraph.vvd.ethernet_port;" parent="1" vertex="1">
          <mxGeometry x="890" y="400" width="15" height="15" as="geometry" />
        </mxCell>
        <mxCell id="C_WioBEn_e1DX77lr8F8-85" style="edgeStyle=orthogonalEdgeStyle;rounded=0;orthogonalLoop=1;jettySize=auto;html=1;fontFamily=Helvetica;fontSize=12;fontColor=default;endArrow=none;endFill=0;" parent="1" source="C_WioBEn_e1DX77lr8F8-78" target="C_WioBEn_e1DX77lr8F8-51" edge="1">
          <mxGeometry relative="1" as="geometry">
            <Array as="points">
              <mxPoint x="1308" y="580" />
              <mxPoint x="1062" y="580" />
            </Array>
          </mxGeometry>
        </mxCell>
        <mxCell id="C_WioBEn_e1DX77lr8F8-78" value="te0/1" style="sketch=0;pointerEvents=1;shadow=0;dashed=0;html=1;strokeColor=none;fillColor=#434445;aspect=fixed;labelPosition=center;verticalLabelPosition=bottom;verticalAlign=top;align=center;outlineConnect=0;shape=mxgraph.vvd.ethernet_port;" parent="1" vertex="1">
          <mxGeometry x="1300" y="399" width="15" height="15" as="geometry" />
        </mxCell>
        <mxCell id="C_WioBEn_e1DX77lr8F8-86" style="edgeStyle=orthogonalEdgeStyle;rounded=0;orthogonalLoop=1;jettySize=auto;html=1;fontFamily=Helvetica;fontSize=12;fontColor=default;endArrow=none;endFill=0;" parent="1" source="C_WioBEn_e1DX77lr8F8-79" target="C_WioBEn_e1DX77lr8F8-52" edge="1">
          <mxGeometry relative="1" as="geometry">
            <Array as="points">
              <mxPoint x="1348" y="610" />
              <mxPoint x="1087" y="610" />
            </Array>
          </mxGeometry>
        </mxCell>
        <mxCell id="C_WioBEn_e1DX77lr8F8-79" value="mgmt0" style="sketch=0;pointerEvents=1;shadow=0;dashed=0;html=1;strokeColor=none;fillColor=#434445;aspect=fixed;labelPosition=center;verticalLabelPosition=bottom;verticalAlign=top;align=center;outlineConnect=0;shape=mxgraph.vvd.ethernet_port;" parent="1" vertex="1">
          <mxGeometry x="1340" y="399" width="15" height="15" as="geometry" />
        </mxCell>
        <mxCell id="C_WioBEn_e1DX77lr8F8-90" style="edgeStyle=orthogonalEdgeStyle;rounded=0;orthogonalLoop=1;jettySize=auto;html=1;fontFamily=Helvetica;fontSize=12;fontColor=default;endArrow=none;endFill=0;" parent="1" source="C_WioBEn_e1DX77lr8F8-64" target="C_WioBEn_e1DX77lr8F8-70" edge="1">
          <mxGeometry relative="1" as="geometry">
            <Array as="points">
              <mxPoint x="658" y="520" />
              <mxPoint x="898" y="520" />
            </Array>
          </mxGeometry>
        </mxCell>
        <mxCell id="C_WioBEn_e1DX77lr8F8-92" style="edgeStyle=orthogonalEdgeStyle;rounded=0;orthogonalLoop=1;jettySize=auto;html=1;fontFamily=Helvetica;fontSize=12;fontColor=default;endArrow=none;endFill=0;" parent="1" source="C_WioBEn_e1DX77lr8F8-65" target="C_WioBEn_e1DX77lr8F8-69" edge="1">
          <mxGeometry relative="1" as="geometry">
            <Array as="points">
              <mxPoint x="698" y="490" />
              <mxPoint x="828" y="490" />
            </Array>
          </mxGeometry>
        </mxCell>
        <mxCell id="C_WioBEn_e1DX77lr8F8-95" value="" style="strokeColor=#666666;html=1;labelPosition=right;align=left;spacingLeft=15;shadow=0;dashed=0;outlineConnect=0;shape=mxgraph.rack.dell.poweredge_r6525;sketch=0;pointerEvents=1;verticalAlign=top;fontFamily=Helvetica;fontSize=12;fontColor=default;fillColor=#434445;" parent="1" vertex="1">
          <mxGeometry x="150" y="-10" width="280" height="30" as="geometry" />
        </mxCell>
        <mxCell id="C_WioBEn_e1DX77lr8F8-96" value="ge0" style="sketch=0;pointerEvents=1;shadow=0;dashed=0;html=1;strokeColor=none;fillColor=#434445;aspect=fixed;labelPosition=center;verticalLabelPosition=bottom;verticalAlign=top;align=center;outlineConnect=0;shape=mxgraph.vvd.ethernet_port;fontFamily=Helvetica;fontSize=12;fontColor=default;" parent="1" vertex="1">
          <mxGeometry x="363.5" y="30" width="20" height="20" as="geometry" />
        </mxCell>
        <mxCell id="C_WioBEn_e1DX77lr8F8-97" value="ge1" style="sketch=0;pointerEvents=1;shadow=0;dashed=0;html=1;strokeColor=none;fillColor=#434445;aspect=fixed;labelPosition=center;verticalLabelPosition=bottom;verticalAlign=top;align=center;outlineConnect=0;shape=mxgraph.vvd.ethernet_port;fontFamily=Helvetica;fontSize=12;fontColor=default;" parent="1" vertex="1">
          <mxGeometry x="400.5" y="30" width="20" height="20" as="geometry" />
        </mxCell>
        <mxCell id="C_WioBEn_e1DX77lr8F8-98" value="tge0" style="sketch=0;pointerEvents=1;shadow=0;dashed=0;html=1;strokeColor=none;fillColor=#434445;aspect=fixed;labelPosition=center;verticalLabelPosition=bottom;verticalAlign=top;align=center;outlineConnect=0;shape=mxgraph.vvd.ethernet_port;fontFamily=Helvetica;fontSize=12;fontColor=default;" parent="1" vertex="1">
          <mxGeometry x="191" y="30" width="20" height="20" as="geometry" />
        </mxCell>
        <mxCell id="C_WioBEn_e1DX77lr8F8-99" value="tge1" style="sketch=0;pointerEvents=1;shadow=0;dashed=0;html=1;strokeColor=none;fillColor=#434445;aspect=fixed;labelPosition=center;verticalLabelPosition=bottom;verticalAlign=top;align=center;outlineConnect=0;shape=mxgraph.vvd.ethernet_port;fontFamily=Helvetica;fontSize=12;fontColor=default;" parent="1" vertex="1">
          <mxGeometry x="231" y="30" width="20" height="20" as="geometry" />
        </mxCell>
        <mxCell id="C_WioBEn_e1DX77lr8F8-100" value="" style="strokeColor=#666666;html=1;labelPosition=right;align=left;spacingLeft=15;shadow=0;dashed=0;outlineConnect=0;shape=mxgraph.rack.dell.poweredge_r6525;sketch=0;pointerEvents=1;verticalAlign=top;fontFamily=Helvetica;fontSize=12;fontColor=default;fillColor=#434445;" parent="1" vertex="1">
          <mxGeometry x="610" y="-10" width="280" height="30" as="geometry" />
        </mxCell>
        <mxCell id="C_WioBEn_e1DX77lr8F8-101" value="ge0" style="sketch=0;pointerEvents=1;shadow=0;dashed=0;html=1;strokeColor=none;fillColor=#434445;aspect=fixed;labelPosition=center;verticalLabelPosition=bottom;verticalAlign=top;align=center;outlineConnect=0;shape=mxgraph.vvd.ethernet_port;fontFamily=Helvetica;fontSize=12;fontColor=default;" parent="1" vertex="1">
          <mxGeometry x="760" y="30" width="20" height="20" as="geometry" />
        </mxCell>
        <mxCell id="C_WioBEn_e1DX77lr8F8-102" value="ge1" style="sketch=0;pointerEvents=1;shadow=0;dashed=0;html=1;strokeColor=none;fillColor=#434445;aspect=fixed;labelPosition=center;verticalLabelPosition=bottom;verticalAlign=top;align=center;outlineConnect=0;shape=mxgraph.vvd.ethernet_port;fontFamily=Helvetica;fontSize=12;fontColor=default;" parent="1" vertex="1">
          <mxGeometry x="816" y="30" width="20" height="20" as="geometry" />
        </mxCell>
        <mxCell id="C_WioBEn_e1DX77lr8F8-103" value="tge0" style="sketch=0;pointerEvents=1;shadow=0;dashed=0;html=1;strokeColor=none;fillColor=#434445;aspect=fixed;labelPosition=center;verticalLabelPosition=bottom;verticalAlign=top;align=center;outlineConnect=0;shape=mxgraph.vvd.ethernet_port;fontFamily=Helvetica;fontSize=12;fontColor=default;" parent="1" vertex="1">
          <mxGeometry x="650" y="30" width="20" height="20" as="geometry" />
        </mxCell>
        <mxCell id="C_WioBEn_e1DX77lr8F8-104" value="tge1" style="sketch=0;pointerEvents=1;shadow=0;dashed=0;html=1;strokeColor=none;fillColor=#434445;aspect=fixed;labelPosition=center;verticalLabelPosition=bottom;verticalAlign=top;align=center;outlineConnect=0;shape=mxgraph.vvd.ethernet_port;fontFamily=Helvetica;fontSize=12;fontColor=default;" parent="1" vertex="1">
          <mxGeometry x="690" y="30" width="20" height="20" as="geometry" />
        </mxCell>
        <mxCell id="C_WioBEn_e1DX77lr8F8-105" value="" style="strokeColor=#666666;html=1;labelPosition=right;align=left;spacingLeft=15;shadow=0;dashed=0;outlineConnect=0;shape=mxgraph.rack.dell.poweredge_r6525;sketch=0;pointerEvents=1;verticalAlign=top;fontFamily=Helvetica;fontSize=12;fontColor=default;fillColor=#434445;" parent="1" vertex="1">
          <mxGeometry x="1094" y="-10" width="280" height="30" as="geometry" />
        </mxCell>
        <mxCell id="C_WioBEn_e1DX77lr8F8-106" value="ge0" style="sketch=0;pointerEvents=1;shadow=0;dashed=0;html=1;strokeColor=none;fillColor=#434445;aspect=fixed;labelPosition=center;verticalLabelPosition=bottom;verticalAlign=top;align=center;outlineConnect=0;shape=mxgraph.vvd.ethernet_port;fontFamily=Helvetica;fontSize=12;fontColor=default;" parent="1" vertex="1">
          <mxGeometry x="1224" y="30" width="20" height="20" as="geometry" />
        </mxCell>
        <mxCell id="C_WioBEn_e1DX77lr8F8-107" value="ge1" style="sketch=0;pointerEvents=1;shadow=0;dashed=0;html=1;strokeColor=none;fillColor=#434445;aspect=fixed;labelPosition=center;verticalLabelPosition=bottom;verticalAlign=top;align=center;outlineConnect=0;shape=mxgraph.vvd.ethernet_port;fontFamily=Helvetica;fontSize=12;fontColor=default;" parent="1" vertex="1">
          <mxGeometry x="1274" y="30" width="20" height="20" as="geometry" />
        </mxCell>
        <mxCell id="C_WioBEn_e1DX77lr8F8-108" value="tge0" style="sketch=0;pointerEvents=1;shadow=0;dashed=0;html=1;strokeColor=none;fillColor=#434445;aspect=fixed;labelPosition=center;verticalLabelPosition=bottom;verticalAlign=top;align=center;outlineConnect=0;shape=mxgraph.vvd.ethernet_port;fontFamily=Helvetica;fontSize=12;fontColor=default;" parent="1" vertex="1">
          <mxGeometry x="1107" y="30" width="20" height="20" as="geometry" />
        </mxCell>
        <mxCell id="C_WioBEn_e1DX77lr8F8-109" value="tge1" style="sketch=0;pointerEvents=1;shadow=0;dashed=0;html=1;strokeColor=none;fillColor=#434445;aspect=fixed;labelPosition=center;verticalLabelPosition=bottom;verticalAlign=top;align=center;outlineConnect=0;shape=mxgraph.vvd.ethernet_port;fontFamily=Helvetica;fontSize=12;fontColor=default;" parent="1" vertex="1">
          <mxGeometry x="1150" y="30" width="20" height="20" as="geometry" />
        </mxCell>
        <mxCell id="C_WioBEn_e1DX77lr8F8-110" value="&lt;div&gt;&lt;br&gt;&lt;/div&gt;" style="text;html=1;align=center;verticalAlign=middle;resizable=0;points=[];autosize=1;strokeColor=none;fillColor=none;fontFamily=Helvetica;fontSize=12;fontColor=default;" parent="1" vertex="1">
          <mxGeometry x="263" y="-40" width="20" height="30" as="geometry" />
        </mxCell>
        <mxCell id="C_WioBEn_e1DX77lr8F8-120" value="Virtual Switching Unit (VSU)" style="text;html=1;align=center;verticalAlign=middle;resizable=0;points=[];autosize=1;strokeColor=none;fillColor=none;fontFamily=Helvetica;fontSize=12;fontColor=default;" parent="1" vertex="1">
          <mxGeometry x="685" y="280" width="170" height="30" as="geometry" />
        </mxCell>
        <mxCell id="C_WioBEn_e1DX77lr8F8-135" style="edgeStyle=orthogonalEdgeStyle;rounded=0;orthogonalLoop=1;jettySize=auto;html=1;fontFamily=Helvetica;fontSize=12;fontColor=default;endArrow=none;endFill=0;" parent="1" source="C_WioBEn_e1DX77lr8F8-121" target="C_WioBEn_e1DX77lr8F8-98" edge="1">
          <mxGeometry relative="1" as="geometry">
            <Array as="points">
              <mxPoint x="200" y="200" />
              <mxPoint x="200" y="200" />
            </Array>
          </mxGeometry>
        </mxCell>
        <mxCell id="C_WioBEn_e1DX77lr8F8-121" value="te1/0/3" style="sketch=0;pointerEvents=1;shadow=0;dashed=0;html=1;strokeColor=none;fillColor=#434445;aspect=fixed;labelPosition=center;verticalLabelPosition=bottom;verticalAlign=top;align=center;outlineConnect=0;shape=mxgraph.vvd.ethernet_port;" parent="1" vertex="1">
          <mxGeometry x="192.5" y="231" width="15" height="15" as="geometry" />
        </mxCell>
        <mxCell id="C_WioBEn_e1DX77lr8F8-137" style="edgeStyle=orthogonalEdgeStyle;rounded=0;orthogonalLoop=1;jettySize=auto;html=1;fontFamily=Helvetica;fontSize=12;fontColor=default;endArrow=none;endFill=0;" parent="1" source="C_WioBEn_e1DX77lr8F8-122" target="C_WioBEn_e1DX77lr8F8-99" edge="1">
          <mxGeometry relative="1" as="geometry">
            <Array as="points">
              <mxPoint x="240" y="200" />
              <mxPoint x="240" y="200" />
            </Array>
          </mxGeometry>
        </mxCell>
        <mxCell id="C_WioBEn_e1DX77lr8F8-122" value="te2/0/3" style="sketch=0;pointerEvents=1;shadow=0;dashed=0;html=1;strokeColor=none;fillColor=#434445;aspect=fixed;labelPosition=center;verticalLabelPosition=bottom;verticalAlign=top;align=center;outlineConnect=0;shape=mxgraph.vvd.ethernet_port;" parent="1" vertex="1">
          <mxGeometry x="231.92000000000002" y="231" width="15" height="15" as="geometry" />
        </mxCell>
        <mxCell id="C_WioBEn_e1DX77lr8F8-139" style="edgeStyle=orthogonalEdgeStyle;rounded=0;orthogonalLoop=1;jettySize=auto;html=1;fontFamily=Helvetica;fontSize=12;fontColor=default;endArrow=none;endFill=0;" parent="1" source="C_WioBEn_e1DX77lr8F8-123" target="C_WioBEn_e1DX77lr8F8-96" edge="1">
          <mxGeometry relative="1" as="geometry" />
        </mxCell>
        <mxCell id="C_WioBEn_e1DX77lr8F8-123" value="te1/0/22" style="sketch=0;pointerEvents=1;shadow=0;dashed=0;html=1;strokeColor=none;fillColor=#434445;aspect=fixed;labelPosition=center;verticalLabelPosition=bottom;verticalAlign=top;align=center;outlineConnect=0;shape=mxgraph.vvd.ethernet_port;" parent="1" vertex="1">
          <mxGeometry x="351" y="231" width="15" height="15" as="geometry" />
        </mxCell>
        <mxCell id="C_WioBEn_e1DX77lr8F8-140" style="edgeStyle=orthogonalEdgeStyle;rounded=0;orthogonalLoop=1;jettySize=auto;html=1;fontFamily=Helvetica;fontSize=12;fontColor=default;endArrow=none;endFill=0;" parent="1" source="C_WioBEn_e1DX77lr8F8-124" target="C_WioBEn_e1DX77lr8F8-97" edge="1">
          <mxGeometry relative="1" as="geometry" />
        </mxCell>
        <mxCell id="C_WioBEn_e1DX77lr8F8-124" value="te2/0/22" style="sketch=0;pointerEvents=1;shadow=0;dashed=0;html=1;strokeColor=none;fillColor=#434445;aspect=fixed;labelPosition=center;verticalLabelPosition=bottom;verticalAlign=top;align=center;outlineConnect=0;shape=mxgraph.vvd.ethernet_port;" parent="1" vertex="1">
          <mxGeometry x="415" y="230" width="15" height="15" as="geometry" />
        </mxCell>
        <mxCell id="C_WioBEn_e1DX77lr8F8-143" style="edgeStyle=orthogonalEdgeStyle;rounded=0;orthogonalLoop=1;jettySize=auto;html=1;fontFamily=Helvetica;fontSize=12;fontColor=default;endArrow=none;endFill=0;" parent="1" source="C_WioBEn_e1DX77lr8F8-125" target="C_WioBEn_e1DX77lr8F8-103" edge="1">
          <mxGeometry relative="1" as="geometry" />
        </mxCell>
        <mxCell id="C_WioBEn_e1DX77lr8F8-125" value="te1/0/4" style="sketch=0;pointerEvents=1;shadow=0;dashed=0;html=1;strokeColor=none;fillColor=#434445;aspect=fixed;labelPosition=center;verticalLabelPosition=bottom;verticalAlign=top;align=center;outlineConnect=0;shape=mxgraph.vvd.ethernet_port;" parent="1" vertex="1">
          <mxGeometry x="653" y="230" width="15" height="15" as="geometry" />
        </mxCell>
        <mxCell id="C_WioBEn_e1DX77lr8F8-144" style="edgeStyle=orthogonalEdgeStyle;rounded=0;orthogonalLoop=1;jettySize=auto;html=1;fontFamily=Helvetica;fontSize=12;fontColor=default;endArrow=none;endFill=0;" parent="1" source="C_WioBEn_e1DX77lr8F8-126" target="C_WioBEn_e1DX77lr8F8-104" edge="1">
          <mxGeometry relative="1" as="geometry" />
        </mxCell>
        <mxCell id="C_WioBEn_e1DX77lr8F8-126" value="te2/0/4" style="sketch=0;pointerEvents=1;shadow=0;dashed=0;html=1;strokeColor=none;fillColor=#434445;aspect=fixed;labelPosition=center;verticalLabelPosition=bottom;verticalAlign=top;align=center;outlineConnect=0;shape=mxgraph.vvd.ethernet_port;" parent="1" vertex="1">
          <mxGeometry x="693" y="230" width="15" height="15" as="geometry" />
        </mxCell>
        <mxCell id="C_WioBEn_e1DX77lr8F8-145" style="edgeStyle=orthogonalEdgeStyle;rounded=0;orthogonalLoop=1;jettySize=auto;html=1;fontFamily=Helvetica;fontSize=12;fontColor=default;endArrow=none;endFill=0;" parent="1" source="C_WioBEn_e1DX77lr8F8-127" target="C_WioBEn_e1DX77lr8F8-101" edge="1">
          <mxGeometry relative="1" as="geometry" />
        </mxCell>
        <mxCell id="C_WioBEn_e1DX77lr8F8-127" value="te1/0/21" style="sketch=0;pointerEvents=1;shadow=0;dashed=0;html=1;strokeColor=none;fillColor=#434445;aspect=fixed;labelPosition=center;verticalLabelPosition=bottom;verticalAlign=top;align=center;outlineConnect=0;shape=mxgraph.vvd.ethernet_port;" parent="1" vertex="1">
          <mxGeometry x="763.5" y="230" width="15" height="15" as="geometry" />
        </mxCell>
        <mxCell id="C_WioBEn_e1DX77lr8F8-146" style="edgeStyle=orthogonalEdgeStyle;rounded=0;orthogonalLoop=1;jettySize=auto;html=1;fontFamily=Helvetica;fontSize=12;fontColor=default;endArrow=none;endFill=0;" parent="1" source="C_WioBEn_e1DX77lr8F8-128" target="C_WioBEn_e1DX77lr8F8-102" edge="1">
          <mxGeometry relative="1" as="geometry" />
        </mxCell>
        <mxCell id="C_WioBEn_e1DX77lr8F8-128" value="te/2/0/21" style="sketch=0;pointerEvents=1;shadow=0;dashed=0;html=1;strokeColor=none;fillColor=#434445;aspect=fixed;labelPosition=center;verticalLabelPosition=bottom;verticalAlign=top;align=center;outlineConnect=0;shape=mxgraph.vvd.ethernet_port;" parent="1" vertex="1">
          <mxGeometry x="818.5" y="230" width="15" height="15" as="geometry" />
        </mxCell>
        <mxCell id="C_WioBEn_e1DX77lr8F8-147" style="edgeStyle=orthogonalEdgeStyle;rounded=0;orthogonalLoop=1;jettySize=auto;html=1;fontFamily=Helvetica;fontSize=12;fontColor=default;endArrow=none;endFill=0;" parent="1" source="C_WioBEn_e1DX77lr8F8-129" target="C_WioBEn_e1DX77lr8F8-108" edge="1">
          <mxGeometry relative="1" as="geometry" />
        </mxCell>
        <mxCell id="C_WioBEn_e1DX77lr8F8-129" value="te1/0/5" style="sketch=0;pointerEvents=1;shadow=0;dashed=0;html=1;strokeColor=none;fillColor=#434445;aspect=fixed;labelPosition=center;verticalLabelPosition=bottom;verticalAlign=top;align=center;outlineConnect=0;shape=mxgraph.vvd.ethernet_port;" parent="1" vertex="1">
          <mxGeometry x="1110" y="231" width="15" height="15" as="geometry" />
        </mxCell>
        <mxCell id="C_WioBEn_e1DX77lr8F8-148" style="edgeStyle=orthogonalEdgeStyle;rounded=0;orthogonalLoop=1;jettySize=auto;html=1;fontFamily=Helvetica;fontSize=12;fontColor=default;endArrow=none;endFill=0;" parent="1" source="C_WioBEn_e1DX77lr8F8-130" target="C_WioBEn_e1DX77lr8F8-109" edge="1">
          <mxGeometry relative="1" as="geometry" />
        </mxCell>
        <mxCell id="C_WioBEn_e1DX77lr8F8-130" value="te2/0/5" style="sketch=0;pointerEvents=1;shadow=0;dashed=0;html=1;strokeColor=none;fillColor=#434445;aspect=fixed;labelPosition=center;verticalLabelPosition=bottom;verticalAlign=top;align=center;outlineConnect=0;shape=mxgraph.vvd.ethernet_port;" parent="1" vertex="1">
          <mxGeometry x="1152" y="230" width="15" height="15" as="geometry" />
        </mxCell>
        <mxCell id="C_WioBEn_e1DX77lr8F8-149" style="edgeStyle=orthogonalEdgeStyle;rounded=0;orthogonalLoop=1;jettySize=auto;html=1;fontFamily=Helvetica;fontSize=12;fontColor=default;endArrow=none;endFill=0;" parent="1" source="C_WioBEn_e1DX77lr8F8-133" target="C_WioBEn_e1DX77lr8F8-106" edge="1">
          <mxGeometry relative="1" as="geometry" />
        </mxCell>
        <mxCell id="C_WioBEn_e1DX77lr8F8-133" value="te1/0/20" style="sketch=0;pointerEvents=1;shadow=0;dashed=0;html=1;strokeColor=none;fillColor=#434445;aspect=fixed;labelPosition=center;verticalLabelPosition=bottom;verticalAlign=top;align=center;outlineConnect=0;shape=mxgraph.vvd.ethernet_port;" parent="1" vertex="1">
          <mxGeometry x="1226.5" y="230" width="15" height="15" as="geometry" />
        </mxCell>
        <mxCell id="C_WioBEn_e1DX77lr8F8-150" style="edgeStyle=orthogonalEdgeStyle;rounded=0;orthogonalLoop=1;jettySize=auto;html=1;fontFamily=Helvetica;fontSize=12;fontColor=default;endArrow=none;endFill=0;" parent="1" source="C_WioBEn_e1DX77lr8F8-134" target="C_WioBEn_e1DX77lr8F8-107" edge="1">
          <mxGeometry relative="1" as="geometry" />
        </mxCell>
        <mxCell id="C_WioBEn_e1DX77lr8F8-134" value="te2/0/20" style="sketch=0;pointerEvents=1;shadow=0;dashed=0;html=1;strokeColor=none;fillColor=#434445;aspect=fixed;labelPosition=center;verticalLabelPosition=bottom;verticalAlign=top;align=center;outlineConnect=0;shape=mxgraph.vvd.ethernet_port;" parent="1" vertex="1">
          <mxGeometry x="1277" y="230" width="15" height="15" as="geometry" />
        </mxCell>
        <mxCell id="C_WioBEn_e1DX77lr8F8-152" value="IDRAC" style="sketch=0;pointerEvents=1;shadow=0;dashed=0;html=1;strokeColor=none;fillColor=#434445;aspect=fixed;labelPosition=center;verticalLabelPosition=bottom;verticalAlign=top;align=center;outlineConnect=0;shape=mxgraph.vvd.ethernet_port;fontFamily=Helvetica;fontSize=12;fontColor=default;" parent="1" vertex="1">
          <mxGeometry x="150" y="30" width="20" height="20" as="geometry" />
        </mxCell>
        <mxCell id="C_WioBEn_e1DX77lr8F8-153" value="IDRAC" style="sketch=0;pointerEvents=1;shadow=0;dashed=0;html=1;strokeColor=none;fillColor=#434445;aspect=fixed;labelPosition=center;verticalLabelPosition=bottom;verticalAlign=top;align=center;outlineConnect=0;shape=mxgraph.vvd.ethernet_port;fontFamily=Helvetica;fontSize=12;fontColor=default;" parent="1" vertex="1">
          <mxGeometry x="1345" y="30" width="20" height="20" as="geometry" />
        </mxCell>
        <mxCell id="C_WioBEn_e1DX77lr8F8-156" style="edgeStyle=orthogonalEdgeStyle;rounded=0;orthogonalLoop=1;jettySize=auto;html=1;fontFamily=Helvetica;fontSize=12;fontColor=default;endArrow=none;endFill=0;" parent="1" source="C_WioBEn_e1DX77lr8F8-154" target="C_WioBEn_e1DX77lr8F8-153" edge="1">
          <mxGeometry relative="1" as="geometry">
            <Array as="points">
              <mxPoint x="1500" y="737" />
              <mxPoint x="1500" y="40" />
            </Array>
          </mxGeometry>
        </mxCell>
        <mxCell id="C_WioBEn_e1DX77lr8F8-154" value="" style="sketch=0;pointerEvents=1;shadow=0;dashed=0;html=1;strokeColor=none;fillColor=#434445;aspect=fixed;labelPosition=center;verticalLabelPosition=bottom;verticalAlign=top;align=center;outlineConnect=0;shape=mxgraph.vvd.ethernet_port;" parent="1" vertex="1">
          <mxGeometry x="1079" y="730" width="15" height="15" as="geometry" />
        </mxCell>
        <mxCell id="C_WioBEn_e1DX77lr8F8-157" style="edgeStyle=orthogonalEdgeStyle;rounded=0;orthogonalLoop=1;jettySize=auto;html=1;fontFamily=Helvetica;fontSize=12;fontColor=default;endArrow=none;endFill=0;" parent="1" source="C_WioBEn_e1DX77lr8F8-155" target="C_WioBEn_e1DX77lr8F8-152" edge="1">
          <mxGeometry relative="1" as="geometry">
            <Array as="points">
              <mxPoint x="50" y="737" />
              <mxPoint x="50" y="40" />
            </Array>
          </mxGeometry>
        </mxCell>
        <mxCell id="C_WioBEn_e1DX77lr8F8-155" value="" style="sketch=0;pointerEvents=1;shadow=0;dashed=0;html=1;strokeColor=none;fillColor=#434445;aspect=fixed;labelPosition=center;verticalLabelPosition=bottom;verticalAlign=top;align=center;outlineConnect=0;shape=mxgraph.vvd.ethernet_port;" parent="1" vertex="1">
          <mxGeometry x="528.4200000000001" y="730" width="15" height="15" as="geometry" />
        </mxCell>
        <mxCell id="C_WioBEn_e1DX77lr8F8-159" style="edgeStyle=orthogonalEdgeStyle;rounded=0;orthogonalLoop=1;jettySize=auto;html=1;fontFamily=Helvetica;fontSize=12;fontColor=default;endArrow=circlePlus;endFill=0;" parent="1" source="C_WioBEn_e1DX77lr8F8-158" edge="1">
          <mxGeometry relative="1" as="geometry">
            <mxPoint x="780" y="600" as="targetPoint" />
          </mxGeometry>
        </mxCell>
        <mxCell id="C_WioBEn_e1DX77lr8F8-158" value="" style="sketch=0;pointerEvents=1;shadow=0;dashed=0;html=1;strokeColor=none;fillColor=#434445;aspect=fixed;labelPosition=center;verticalLabelPosition=bottom;verticalAlign=top;align=center;outlineConnect=0;shape=mxgraph.vvd.ethernet_port;" parent="1" vertex="1">
          <mxGeometry x="772.5000000000001" y="658" width="15" height="15" as="geometry" />
        </mxCell>
        <mxCell id="C_WioBEn_e1DX77lr8F8-162" style="edgeStyle=orthogonalEdgeStyle;rounded=0;orthogonalLoop=1;jettySize=auto;html=1;fontFamily=Helvetica;fontSize=12;fontColor=default;endArrow=circlePlus;endFill=0;" parent="1" source="C_WioBEn_e1DX77lr8F8-161" edge="1">
          <mxGeometry relative="1" as="geometry">
            <mxPoint x="870" y="140" as="targetPoint" />
            <Array as="points">
              <mxPoint x="870" y="130" />
            </Array>
          </mxGeometry>
        </mxCell>
        <mxCell id="C_WioBEn_e1DX77lr8F8-161" value="IDRAC" style="sketch=0;pointerEvents=1;shadow=0;dashed=0;html=1;strokeColor=none;fillColor=#434445;aspect=fixed;labelPosition=center;verticalLabelPosition=bottom;verticalAlign=top;align=center;outlineConnect=0;shape=mxgraph.vvd.ethernet_port;fontFamily=Helvetica;fontSize=12;fontColor=default;" parent="1" vertex="1">
          <mxGeometry x="860" y="30" width="20" height="20" as="geometry" />
        </mxCell>
        <mxCell id="C_WioBEn_e1DX77lr8F8-163" value="VSL" style="text;html=1;align=center;verticalAlign=middle;resizable=0;points=[];autosize=1;strokeColor=none;fillColor=none;fontFamily=Helvetica;fontSize=12;fontColor=default;" parent="1" vertex="1">
          <mxGeometry x="736" y="490" width="50" height="30" as="geometry" />
        </mxCell>
        <mxCell id="C_WioBEn_e1DX77lr8F8-164" value="" style="ellipse;whiteSpace=wrap;html=1;shadow=0;dashed=1;sketch=0;pointerEvents=1;align=center;verticalAlign=top;fontFamily=Helvetica;fontSize=12;fontColor=default;fillColor=none;" parent="1" vertex="1">
          <mxGeometry x="745.5" y="464" width="30" height="75" as="geometry" />
        </mxCell>
        <mxCell id="C_WioBEn_e1DX77lr8F8-168" value="" style="group" parent="1" vertex="1" connectable="0">
          <mxGeometry x="180" y="120" width="80" height="40" as="geometry" />
        </mxCell>
        <mxCell id="C_WioBEn_e1DX77lr8F8-166" value="" style="ellipse;whiteSpace=wrap;html=1;shadow=0;dashed=1;sketch=0;pointerEvents=1;align=center;verticalAlign=top;fontFamily=Helvetica;fontSize=12;fontColor=default;fillColor=none;" parent="C_WioBEn_e1DX77lr8F8-168" vertex="1">
          <mxGeometry width="80" height="40" as="geometry" />
        </mxCell>
        <mxCell id="C_WioBEn_e1DX77lr8F8-167" value="LACP" style="text;html=1;align=center;verticalAlign=middle;resizable=0;points=[];autosize=1;strokeColor=none;fillColor=none;fontFamily=Helvetica;fontSize=12;fontColor=default;" parent="C_WioBEn_e1DX77lr8F8-168" vertex="1">
          <mxGeometry x="15" y="5" width="50" height="30" as="geometry" />
        </mxCell>
        <mxCell id="C_WioBEn_e1DX77lr8F8-169" value="" style="group" parent="1" vertex="1" connectable="0">
          <mxGeometry x="351" y="120" width="80" height="40" as="geometry" />
        </mxCell>
        <mxCell id="C_WioBEn_e1DX77lr8F8-170" value="" style="ellipse;whiteSpace=wrap;html=1;shadow=0;dashed=1;sketch=0;pointerEvents=1;align=center;verticalAlign=top;fontFamily=Helvetica;fontSize=12;fontColor=default;fillColor=none;" parent="C_WioBEn_e1DX77lr8F8-169" vertex="1">
          <mxGeometry width="80" height="40" as="geometry" />
        </mxCell>
        <mxCell id="C_WioBEn_e1DX77lr8F8-171" value="LACP" style="text;html=1;align=center;verticalAlign=middle;resizable=0;points=[];autosize=1;strokeColor=none;fillColor=none;fontFamily=Helvetica;fontSize=12;fontColor=default;" parent="C_WioBEn_e1DX77lr8F8-169" vertex="1">
          <mxGeometry x="15" y="5" width="50" height="30" as="geometry" />
        </mxCell>
        <mxCell id="C_WioBEn_e1DX77lr8F8-172" value="" style="group" parent="1" vertex="1" connectable="0">
          <mxGeometry x="639" y="119" width="80" height="40" as="geometry" />
        </mxCell>
        <mxCell id="C_WioBEn_e1DX77lr8F8-173" value="" style="ellipse;whiteSpace=wrap;html=1;shadow=0;dashed=1;sketch=0;pointerEvents=1;align=center;verticalAlign=top;fontFamily=Helvetica;fontSize=12;fontColor=default;fillColor=none;" parent="C_WioBEn_e1DX77lr8F8-172" vertex="1">
          <mxGeometry width="80" height="40" as="geometry" />
        </mxCell>
        <mxCell id="C_WioBEn_e1DX77lr8F8-174" value="LACP" style="text;html=1;align=center;verticalAlign=middle;resizable=0;points=[];autosize=1;strokeColor=none;fillColor=none;fontFamily=Helvetica;fontSize=12;fontColor=default;" parent="C_WioBEn_e1DX77lr8F8-172" vertex="1">
          <mxGeometry x="15" y="5" width="50" height="30" as="geometry" />
        </mxCell>
        <mxCell id="C_WioBEn_e1DX77lr8F8-175" value="" style="group" parent="1" vertex="1" connectable="0">
          <mxGeometry x="760" y="119" width="80" height="40" as="geometry" />
        </mxCell>
        <mxCell id="C_WioBEn_e1DX77lr8F8-176" value="" style="ellipse;whiteSpace=wrap;html=1;shadow=0;dashed=1;sketch=0;pointerEvents=1;align=center;verticalAlign=top;fontFamily=Helvetica;fontSize=12;fontColor=default;fillColor=none;" parent="C_WioBEn_e1DX77lr8F8-175" vertex="1">
          <mxGeometry width="80" height="40" as="geometry" />
        </mxCell>
        <mxCell id="C_WioBEn_e1DX77lr8F8-177" value="LACP" style="text;html=1;align=center;verticalAlign=middle;resizable=0;points=[];autosize=1;strokeColor=none;fillColor=none;fontFamily=Helvetica;fontSize=12;fontColor=default;" parent="C_WioBEn_e1DX77lr8F8-175" vertex="1">
          <mxGeometry x="15" y="5" width="50" height="30" as="geometry" />
        </mxCell>
        <mxCell id="C_WioBEn_e1DX77lr8F8-178" value="" style="group" parent="1" vertex="1" connectable="0">
          <mxGeometry x="1100" y="120" width="80" height="40" as="geometry" />
        </mxCell>
        <mxCell id="C_WioBEn_e1DX77lr8F8-179" value="" style="ellipse;whiteSpace=wrap;html=1;shadow=0;dashed=1;sketch=0;pointerEvents=1;align=center;verticalAlign=top;fontFamily=Helvetica;fontSize=12;fontColor=default;fillColor=none;" parent="C_WioBEn_e1DX77lr8F8-178" vertex="1">
          <mxGeometry width="80" height="40" as="geometry" />
        </mxCell>
        <mxCell id="C_WioBEn_e1DX77lr8F8-180" value="LACP" style="text;html=1;align=center;verticalAlign=middle;resizable=0;points=[];autosize=1;strokeColor=none;fillColor=none;fontFamily=Helvetica;fontSize=12;fontColor=default;" parent="C_WioBEn_e1DX77lr8F8-178" vertex="1">
          <mxGeometry x="15" y="5" width="50" height="30" as="geometry" />
        </mxCell>
        <mxCell id="C_WioBEn_e1DX77lr8F8-181" value="" style="group" parent="1" vertex="1" connectable="0">
          <mxGeometry x="1220" y="120" width="80" height="40" as="geometry" />
        </mxCell>
        <mxCell id="C_WioBEn_e1DX77lr8F8-182" value="" style="ellipse;whiteSpace=wrap;html=1;shadow=0;dashed=1;sketch=0;pointerEvents=1;align=center;verticalAlign=top;fontFamily=Helvetica;fontSize=12;fontColor=default;fillColor=none;" parent="C_WioBEn_e1DX77lr8F8-181" vertex="1">
          <mxGeometry width="80" height="40" as="geometry" />
        </mxCell>
        <mxCell id="C_WioBEn_e1DX77lr8F8-183" value="LACP" style="text;html=1;align=center;verticalAlign=middle;resizable=0;points=[];autosize=1;strokeColor=none;fillColor=none;fontFamily=Helvetica;fontSize=12;fontColor=default;" parent="C_WioBEn_e1DX77lr8F8-181" vertex="1">
          <mxGeometry x="15" y="5" width="50" height="30" as="geometry" />
        </mxCell>
        <mxCell id="_Q4C5NpfGLWOjkD2e7zN-1" value="&lt;div&gt;Dell PowerEdge R6525&lt;/div&gt;" style="text;html=1;align=center;verticalAlign=middle;resizable=0;points=[];autosize=1;strokeColor=none;fillColor=none;" parent="1" vertex="1">
          <mxGeometry x="198" y="-55" width="150" height="30" as="geometry" />
        </mxCell>
        <mxCell id="_Q4C5NpfGLWOjkD2e7zN-2" value="&lt;div&gt;Dell PowerEdge R6525&lt;/div&gt;" style="text;html=1;align=center;verticalAlign=middle;resizable=0;points=[];autosize=1;strokeColor=none;fillColor=none;" parent="1" vertex="1">
          <mxGeometry x="675" y="-55" width="150" height="30" as="geometry" />
        </mxCell>
        <mxCell id="_Q4C5NpfGLWOjkD2e7zN-3" value="&lt;div&gt;Dell PowerEdge R6525&lt;/div&gt;" style="text;html=1;align=center;verticalAlign=middle;resizable=0;points=[];autosize=1;strokeColor=none;fillColor=none;" parent="1" vertex="1">
          <mxGeometry x="1152" y="-55" width="150" height="30" as="geometry" />
        </mxCell>
      </root>
    </mxGraphModel>
  </diagram>
</mxfile>
